<?xml version="1.0" encoding="utf-8"?>

<!DOCTYPE svg PUBLIC "-//W3C//DTD SVG 1.1//EN" "http://www.w3.org/Graphics/SVG/1.1/DTD/svg11.dtd">
<svg version="1.1"
   id="svg2" sodipodi:docname="color_logo.svg" inkscape:version="0.92.2 5c3e80d, 2017-08-06" xmlns:dc="http://purl.org/dc/elements/1.1/" xmlns:cc="http://creativecommons.org/ns#" xmlns:rdf="http://www.w3.org/1999/02/22-rdf-syntax-ns#" xmlns:svg="http://www.w3.org/2000/svg" xmlns:sodipodi="http://sodipodi.sourceforge.net/DTD/sodipodi-0.dtd" xmlns:inkscape="http://www.inkscape.org/namespaces/inkscape"
   xmlns="http://www.w3.org/2000/svg" xmlns:xlink="http://www.w3.org/1999/xlink" x="0px" y="0px" width="450px" height="100px"
   viewBox="-34 -34 580 580" enable-background="new 0 0 1024 1024" xml:space="preserve">

   <radialGradient id="coinShape" cx="256.02759" cy="256.00269" r="255.98779" gradientUnits="userSpaceOnUse" gradientTransform="translate(-948.2099)">
     <stop offset="0" style="stop-color:#333333" id="stop11" />
     <stop offset="1" style="stop-color:#1A1A1A" id="stop13" />
   </radialGradient>

   <circle cx="-692.18231" cy="256.00269" r="255.98779" style="fill:url(#coinShape)" />

   <path fill="#ffffff" d="m -692.18231,41.592965 c -118.40278,0 -214.40972,96.006945 -214.40972,214.409725 0,118.40278 96.00694,214.40972
     214.40972,214.40972 118.40277,0 214.40972,-96.00694 214.40972,-214.40972 0,-118.40278 -96.00695,-214.409725 -214.40972,-214.409725 z m
     0,406.857645 c -106.25,0 -192.44792,-86.19792 -192.44792,-192.44792 0,-106.25 86.19792,-192.447918 192.44792,-192.447918 106.25,0
     192.44791,86.197918 192.44791,192.447918 0,106.25 -86.19791,192.44792 -192.44791,192.44792 z" />

   <g transform="matrix(0.86805557,0,0,0.86805557,-909.84724,39.162404)">
     <path fill="#7f7f7f" d="m 357.8,130 c -1.2,-0.4 -2.5,-0.8 -3.7,-1.1 l -28.6,38.5 c 11,2.4 21.7,5.7 32.3,9.5 z m -81.5,103.7 -34.8,47 h 34.7
       c 26.3,0 39.5,10.4 39.5,31.3 0,28.7 -21.4,43.1 -64.3,43.1 -21.6,0 -41.8,-1.9 -60.7,-5.9 l -28.8,38.9 c 26.6,8 56.5,11.9 89.5,11.9 77.5,0
       116.2,-29.3 116.2,-88 0,-52.1 -30.4,-78.2 -91.3,-78.3 z" />
     <path fill="#c4c4c4" d="m 143.6,322.5 c 10.9,4.1 22.4,7.3 34.4,9.8 l -28.8,38.9 c -1.9,-0.5 -3.8,-1.1 -5.6,-1.7 z" />
     <path fill="#c4c4c4" d="m 185.7,185.6 c 0,20.9 11.4,31.3 34,31.3 h 44 l -34.8,47 h -9.1 c -57.3,0 -85.9,-26.1 -85.9,-78.2 0,-57.4 40.8,-86.1
       122.3,-86.1 29.9,0 58.4,4.2 85.3,12.5 l -28.6,38.5 c -18.3,-4.1 -37.2,-6.1 -56.7,-6.1 -47,0 -70.5,13.7 -70.5,41.1 z" />
   </g>

   <g transform="matrix(5.8,0,0,5.8,-321.0099,32.7)">
     <path fill="#282828" d="M 3.5,72.3 V 59.9 c 7.4,2.8 15.8,4.1 25.1,4.1 11.3,0 17,-3.8 17,-11.4 0,-5.5 -3.5,-8.3 -10.4,-8.3 H 23.6 C 8.5,44.3
       0.9,37.4 0.9,23.6 0.9,8.6 11.7,1 33.2,1 41.5,1 49.3,2.2 56.7,4.6 V 17 c -7.4,-2.8 -15.2,-4.1 -23.5,-4.1 -12.4,0 -18.6,3.6 -18.6,10.8 0,5.5
       3,8.3 9,8.3 H 35.2 C 51.3,32 59.3,38.9 59.3,52.7 59.3,68.2 49,76 28.6,76 19.2,76 10.9,74.7 3.5,72.3 Z" />
     <path fill="#282828" d="m 84.6,1.6 v 62 h 29.3 v 11.9 h -43 V 1.6 Z" />
     <path fill="#282828" d="M 134.4,75.4 H 120.3 L 151.7,1.5 h 14.7 l 32,73.9 h -14.7 l -8.4,-20.1 h -24.5 l 4.7,-11.9 h 14.9 L 158.8,15.7 Z" />
     <path fill="#282828" d="m 248.1,1.6 v 11.9 h -21.2 v 62 h -13.7 v -62 H 192 V 1.6 Z" />
     <path fill="#282828" d="m 306.4,1.6 v 11.8 h -37 V 32 h 35.2 v 12.2 h -35.4 v 19.4 h 37.9 V 75.5 H 255.8 V 1.6 Z" />
   </g>
</svg>
